<svg xmlns="http://www.w3.org/2000/svg" viewBox="0 0 1024 1024" width="1024" height="1024">
<!-- flat backdrop --><rect x="0" y="0" width="1024" height="1024" fill="#dde7e9"/>
<!-- neck from under the jaw into the collar --><path d="M 579 467 Q 591 533 620 528 Q 650 523 644 489 Q 638 456 608 461 Z" fill="#e8d7bd" stroke="#8a8272" stroke-width="3"/>
<!-- shoulder line rising to the collar --><path d="M 367 840 Q 594 707 708 773 Q 822 840 865 758 Q 909 676 751 599 Q 594 522 437 599 Q 280 676 323 758 Z" fill="#e1e7dc" stroke="#3a3d4d" stroke-width="3"/>
<!-- left hair mass: starts on the skull, falls past the jaw --><path d="M 455 229 Q 362 419 378 560 Q 394 701 442 695 Q 490 689 474 560 Q 457 431 499 352 Q 541 272 498 251 Z" fill="#3974ab" stroke="#26354a" stroke-width="3"/>
<!-- right hair mass: starts on the skull, the ref's longer curtain side --><path d="M 678 269 Q 765 445 751 600 Q 737 754 791 759 Q 845 764 859 598 Q 873 431 824 327 Q 776 222 727 245 Z" fill="#3974ab" stroke="#26354a" stroke-width="3"/>
<!-- skull dome under the hat --><path d="M 548 262 Q 614 217 647 239 Q 680 262 707 215 Q 733 167 674 138 Q 614 109 555 138 Q 496 167 522 215 Z" fill="#3974ab" stroke="#26354a" stroke-width="3"/>
<!-- left temple lock: covers the eye corner like the ref --><path d="M 486 236 Q 470 335 476 379 Q 482 423 506 420 Q 530 417 524 376 Q 518 336 526 290 Q 534 244 510 240 Z" fill="#3974ab" stroke="#26354a" stroke-width="3"/>
<!-- right temple lock --><path d="M 695 239 Q 711 333 705 378 Q 699 422 723 425 Q 747 428 753 380 Q 759 332 751 282 Q 743 231 719 235 Z" fill="#3974ab" stroke="#26354a" stroke-width="3"/>
<!-- head/skin ellipse — the face ruler (host) --><ellipse cx="614.4" cy="348.2" rx="100.4" ry="128.5" fill="#f2e6d8" stroke="#2a2f3a" stroke-width="3"/>
<!-- eyeL sclera: the almond aperture, pale --><path d="M 588 277 Q 586 275 584 273 Q 582 272 581 271 Q 579 269 577 268 Q 575 267 573 266 Q 571 265 569 264 Q 566 263 564 262 Q 562 261 559 260 Q 557 259 554 259 Q 552 258 550 258 Q 547 257 544 257 Q 542 257 539 256 Q 537 256 535 256 Q 532 256 530 257 Q 527 257 525 257 Q 523 258 521 258 Q 518 259 516 260 Q 514 261 512 262 Q 511 263 509 265 Q 507 266 506 268 Q 504 270 505 272 Q 506 273 508 274 Q 509 276 511 277 Q 512 278 514 280 Q 516 281 518 282 Q 520 283 522 284 Q 525 285 527 285 Q 529 286 532 287 Q 534 287 537 288 Q 539 288 542 289 Q 544 289 547 289 Q 549 289 552 289 Q 555 289 557 289 Q 560 289 562 289 Q 565 289 567 288 Q 569 288 572 287 Q 574 286 576 285 Q 578 285 580 284 Q 582 283 584 281 Q 585 280 587 279 Z" fill="#fdf2f9"/>
<!-- eyeL iris lower tone --><ellipse cx="542.1" cy="272.3" rx="37.1" ry="13.2" fill="#ef92ae"/>
<!-- eyeL iris upper tone (under the lid shadow) --><path d="M 505 272 Q 505 270 506 269 Q 507 268 508 267 Q 509 266 511 265 Q 512 264 514 264 Q 516 263 518 262 Q 520 262 523 261 Q 525 260 528 260 Q 531 260 533 259 Q 536 259 539 259 Q 542 259 545 259 Q 548 259 551 259 Q 554 260 556 260 Q 559 260 561 261 Q 564 262 566 262 Q 568 263 570 264 Q 572 264 574 265 Q 575 266 576 267 Q 577 268 578 269 Q 579 270 579 271 Q 579 272 579 272 Q 579 273 542 273 Q 505 273 505 272 Z" fill="#4470b3"/>
<!-- eyeL small dark pupil (cel eyes barely show one) --><ellipse cx="542.1" cy="273.8" rx="8.2" ry="4.0" fill="#241a2c"/>
<!-- eyeL coloured reflection just below the glint --><ellipse cx="537.5" cy="269.7" rx="6.7" ry="2.4" fill="#62c7a8"/>
<!-- eyeL main glint, nose-side upper --><ellipse cx="537.5" cy="257.2" rx="6.3" ry="8.2" fill="#ffffff"/>
<!-- eyeL small glint, outer lower --><ellipse cx="558.1" cy="282.0" rx="4.6" ry="5.6" fill="#ffffff"/>
<!-- eyeL upper lash: one-sided tapered band + outer wing --><path d="M 591 275 Q 588 272 587 270 Q 585 268 584 267 Q 582 265 580 263 Q 578 262 576 260 Q 574 259 572 258 Q 569 256 567 255 Q 564 254 562 253 Q 559 251 557 251 Q 554 250 551 250 Q 548 249 546 249 Q 543 248 540 248 Q 537 248 534 248 Q 532 248 529 248 Q 526 249 523 249 Q 521 250 518 251 Q 515 251 513 253 Q 510 254 508 255 Q 505 257 503 259 Q 501 261 502 261 Q 504 262 503 262 Q 503 262 500 260 Q 497 259 495 261 Q 494 262 497 265 Q 499 267 502 268 Q 504 270 506 268 Q 507 266 509 265 Q 511 263 512 262 Q 514 261 516 260 Q 518 259 521 258 Q 523 258 525 257 Q 527 257 530 257 Q 532 256 535 256 Q 537 256 539 256 Q 542 257 544 257 Q 547 257 550 258 Q 552 258 554 259 Q 557 259 559 260 Q 562 261 564 262 Q 566 263 569 264 Q 571 265 573 266 Q 575 267 577 268 Q 579 269 581 271 Q 582 272 584 273 Q 586 275 587 276 Q 588 277 589 276 Z" fill="#0a0e18"/>
<!-- eyeL lower lash line --><path d="M 506 273 Q 509 276 511 277 Q 512 278 514 280 Q 516 281 518 282 Q 520 283 522 284 Q 525 285 527 285 Q 529 286 532 287 Q 534 287 537 288 Q 539 288 542 289 Q 544 289 547 289 Q 549 289 552 289 Q 555 289 557 289 Q 560 289 562 289 Q 565 289 567 288 Q 569 288 572 287 Q 574 286 576 285 Q 578 285 580 284 Q 582 283 584 281 Q 585 280 587 279 L 588 277" fill="none" stroke="#0a0e18" stroke-width="2.6" stroke-linecap="round"/>
<!-- eyeL aperture outline --><path d="M 588 277 Q 586 275 584 273 Q 582 272 581 271 Q 579 269 577 268 Q 575 267 573 266 Q 571 265 569 264 Q 566 263 564 262 Q 562 261 559 260 Q 557 259 554 259 Q 552 258 550 258 Q 547 257 544 257 Q 542 257 539 256 Q 537 256 535 256 Q 532 256 530 257 Q 527 257 525 257 Q 523 258 521 258 Q 518 259 516 260 Q 514 261 512 262 Q 511 263 509 265 Q 507 266 506 268 Q 504 270 505 272 Q 506 273 508 274 Q 509 276 511 277 Q 512 278 514 280 Q 516 281 518 282 Q 520 283 522 284 Q 525 285 527 285 Q 529 286 532 287 Q 534 287 537 288 Q 539 288 542 289 Q 544 289 547 289 Q 549 289 552 289 Q 555 289 557 289 Q 560 289 562 289 Q 565 289 567 288 Q 569 288 572 287 Q 574 286 576 285 Q 578 285 580 284 Q 582 283 584 281 Q 585 280 587 279 L 588 277" fill="none" stroke="#0a0e18" stroke-width="1.4" stroke-linecap="round"/>
<!-- eyeR sclera: the almond aperture, pale --><path d="M 641 277 Q 643 275 645 273 Q 646 272 648 271 Q 650 269 652 268 Q 654 267 656 266 Q 658 265 660 264 Q 662 263 665 262 Q 667 261 669 260 Q 672 259 674 259 Q 677 258 679 258 Q 682 257 684 257 Q 687 257 689 256 Q 692 256 694 256 Q 697 256 699 257 Q 701 257 704 257 Q 706 258 708 258 Q 710 259 712 260 Q 715 261 716 262 Q 718 263 720 265 Q 722 266 723 268 Q 725 270 724 272 Q 722 273 721 274 Q 720 276 718 277 Q 716 278 715 280 Q 713 281 711 282 Q 709 283 706 284 Q 704 285 702 285 Q 700 286 697 287 Q 695 287 692 288 Q 690 288 687 289 Q 685 289 682 289 Q 679 289 677 289 Q 674 289 672 289 Q 669 289 667 289 Q 664 289 662 288 Q 659 288 657 287 Q 655 286 653 285 Q 651 285 649 284 Q 647 283 645 281 Q 644 280 642 279 Z" fill="#fdf2f9"/>
<!-- eyeR iris lower tone --><ellipse cx="678.3" cy="273.0" rx="37.1" ry="13.2" fill="#ef92ae"/>
<!-- eyeR iris upper tone (under the lid shadow) --><path d="M 641 273 Q 642 271 642 270 Q 643 269 644 268 Q 645 267 647 266 Q 648 265 650 264 Q 652 264 654 263 Q 657 262 659 262 Q 662 261 664 261 Q 667 260 670 260 Q 673 260 675 260 Q 678 260 681 260 Q 684 260 687 260 Q 690 260 692 261 Q 695 261 698 262 Q 700 262 702 263 Q 705 264 706 264 Q 708 265 710 266 Q 711 267 713 268 Q 714 269 714 270 Q 715 271 715 272 Q 715 273 715 273 Q 715 273 678 273 Q 641 273 641 273 Z" fill="#4470b3"/>
<!-- eyeR small dark pupil (cel eyes barely show one) --><ellipse cx="678.3" cy="274.6" rx="8.2" ry="4.0" fill="#241a2c"/>
<!-- eyeR coloured reflection just below the glint --><ellipse cx="671.2" cy="271.5" rx="6.7" ry="2.4" fill="#62c7a8"/>
<!-- eyeR main glint, nose-side upper --><ellipse cx="671.2" cy="258.9" rx="6.3" ry="8.2" fill="#ffffff"/>
<!-- eyeR small glint, outer lower --><ellipse cx="695.9" cy="279.8" rx="4.6" ry="5.6" fill="#ffffff"/>
<!-- eyeR upper lash: one-sided tapered band + outer wing --><path d="M 641 277 Q 643 275 645 273 Q 646 272 648 271 Q 650 269 652 268 Q 654 267 656 266 Q 658 265 660 264 Q 662 263 665 262 Q 667 261 669 260 Q 672 259 674 259 Q 677 258 679 258 Q 682 257 684 257 Q 687 257 689 256 Q 692 256 694 256 Q 697 256 699 257 Q 701 257 704 257 Q 706 258 708 258 Q 710 259 712 260 Q 715 261 716 262 Q 718 263 720 265 Q 722 266 723 268 Q 725 270 727 268 Q 729 267 732 265 Q 735 262 733 261 Q 732 259 729 260 Q 726 262 725 262 Q 725 262 726 261 Q 728 261 725 259 Q 723 257 721 255 Q 719 254 716 253 Q 713 251 711 251 Q 708 250 705 249 Q 703 249 700 248 Q 697 248 694 248 Q 692 248 689 248 Q 686 248 683 249 Q 680 249 678 250 Q 675 250 672 251 Q 670 251 667 253 Q 664 254 662 255 Q 660 256 657 258 Q 655 259 653 260 Q 651 262 649 263 Q 647 265 645 267 Q 644 268 642 270 Q 641 272 639 273 Q 638 275 639 276 Z" fill="#0a0e18"/>
<!-- eyeR lower lash line --><path d="M 722 273 Q 720 276 718 277 Q 716 278 715 280 Q 713 281 711 282 Q 709 283 706 284 Q 704 285 702 285 Q 700 286 697 287 Q 695 287 692 288 Q 690 288 687 289 Q 685 289 682 289 Q 679 289 677 289 Q 674 289 672 289 Q 669 289 667 289 Q 664 289 662 288 Q 659 288 657 287 Q 655 286 653 285 Q 651 285 649 284 Q 647 283 645 281 Q 644 280 642 279 L 641 277" fill="none" stroke="#0a0e18" stroke-width="2.6" stroke-linecap="round"/>
<!-- eyeR aperture outline --><path d="M 641 277 Q 643 275 645 273 Q 646 272 648 271 Q 650 269 652 268 Q 654 267 656 266 Q 658 265 660 264 Q 662 263 665 262 Q 667 261 669 260 Q 672 259 674 259 Q 677 258 679 258 Q 682 257 684 257 Q 687 257 689 256 Q 692 256 694 256 Q 697 256 699 257 Q 701 257 704 257 Q 706 258 708 258 Q 710 259 712 260 Q 715 261 716 262 Q 718 263 720 265 Q 722 266 723 268 Q 725 270 724 272 Q 722 273 721 274 Q 720 276 718 277 Q 716 278 715 280 Q 713 281 711 282 Q 709 283 706 284 Q 704 285 702 285 Q 700 286 697 287 Q 695 287 692 288 Q 690 288 687 289 Q 685 289 682 289 Q 679 289 677 289 Q 674 289 672 289 Q 669 289 667 289 Q 664 289 662 288 Q 659 288 657 287 Q 655 286 653 285 Q 651 285 649 284 Q 647 283 645 281 Q 644 280 642 279 L 641 277" fill="none" stroke="#0a0e18" stroke-width="1.4" stroke-linecap="round"/>
<!-- fringe strand under the brim, over the forehead --><path d="M 625 237 Q 616 262 623 273 Q 630 284 638 279 Q 647 273 642 266 Q 636 260 640 252 Q 644 244 634 240 Z" fill="#3974ab" stroke="#26354a" stroke-width="2"/>
<!-- left brow off eye anchors --><path d="M 508 233 L 555 240" fill="none" stroke="#241d26" stroke-width="2.3" stroke-linecap="round"/>
<!-- right brow = mirrored --><path d="M 721 233 L 674 240" fill="none" stroke="#241d26" stroke-width="2.3" stroke-linecap="round"/>
<!-- tiny nose tick (canon: cy+0.05ry) --><path d="M 602 351 L 590 364" fill="none" stroke="#8a6a58" stroke-width="2.2" stroke-linecap="round"/>
<!-- soft mouth dash (canon: cy+0.52ry) --><path d="M 607 411 L 624 416" fill="none" stroke="#a08a74" stroke-width="3.2" stroke-linecap="round"/>
<!-- brim (far slice): a flat disc seen at -14deg -> ellipse 542 wide, 163 deep; painted under the crown --><path d="M 614 166 Q 365 249 362 246 Q 359 244 357 241 Q 355 239 354 236 Q 352 233 352 230 Q 351 227 351 224 Q 351 221 352 217 Q 353 214 355 210 Q 356 207 359 203 Q 361 200 364 196 Q 367 192 371 188 Q 375 185 380 181 Q 384 177 390 173 Q 395 169 401 165 Q 406 161 413 158 Q 419 154 426 150 Q 433 146 441 142 Q 448 138 456 135 Q 464 131 473 127 Q 481 124 490 120 Q 499 117 508 113 Q 517 110 527 107 Q 536 104 546 101 Q 555 98 565 95 Q 575 92 585 90 Q 595 87 605 85 Q 615 82 625 80 Q 635 78 645 76 Q 655 74 664 73 Q 674 71 684 70 Q 693 68 703 67 Q 712 66 721 65 Q 731 65 739 64 Q 748 64 757 63 Q 765 63 773 63 Q 781 64 788 64 Q 796 64 803 65 Q 810 66 816 67 Q 823 68 829 69 Q 834 70 840 72 Q 845 73 849 75 Q 854 77 858 79 Q 861 81 865 83 Q 868 86 870 88 Q 872 91 874 93 Q 876 96 877 99 Q 877 102 878 105 Q 878 108 877 112 Q 877 115 875 118 Q 874 122 744 144 Z" fill="#3b7f92"/>
<!-- crown: dome 0.60 crown-radii up the brim normal, between the brim's far and near slices --><ellipse cx="604.4" cy="125.7" rx="78.3" ry="68.9" fill="#32405b" stroke="#1e2a3f" stroke-width="2" transform="rotate(-14.0 604.4 125.7)"/>
<!-- pom at t=0.62 along the brim outline, r=24 --><ellipse cx="409.5" cy="159.6" rx="24.4" ry="21.0" fill="#df9199"/>
<!-- pom at t=0.88 along the brim outline, r=24 --><ellipse cx="792.4" cy="64.1" rx="24.4" ry="21.0" fill="#df9199"/>
<!-- brim (near slice): over the crown's base - the near edge occludes the crown --><path d="M 614 166 Q 874 122 872 124 Q 871 127 869 130 Q 867 132 865 135 Q 863 138 860 140 Q 857 143 854 146 Q 852 149 848 151 Q 845 154 841 157 Q 837 160 833 163 Q 829 166 825 168 Q 821 171 816 174 Q 811 177 806 180 Q 801 182 796 185 Q 791 188 785 191 Q 780 193 774 196 Q 768 199 762 201 Q 756 204 750 207 Q 744 209 738 212 Q 731 214 725 217 Q 718 219 711 221 Q 705 224 698 226 Q 691 228 684 231 Q 677 233 670 235 Q 663 237 656 239 Q 648 241 641 243 Q 634 245 627 246 Q 620 248 612 250 Q 605 251 598 253 Q 591 254 583 256 Q 576 257 569 258 Q 562 259 555 260 Q 548 262 541 262 Q 534 263 527 264 Q 520 265 514 266 Q 507 266 500 267 Q 494 267 488 268 Q 481 268 475 268 Q 469 268 463 268 Q 457 268 451 268 Q 446 268 440 268 Q 435 267 430 267 Q 424 267 420 266 Q 415 265 410 265 Q 406 264 401 263 Q 397 262 393 261 Q 389 260 386 259 Q 382 258 379 256 Q 376 255 373 253 Q 370 252 367 250 Q 365 249 490 207 Z" fill="#4d94a6"/>
</svg>